<svg version="1.0" xmlns="http://www.w3.org/2000/svg" width="600.000000pt" height="600.000000pt" viewBox="0 0 600.000000 600.000000" preserveAspectRatio="xMidYMid meet" style="width: 494.415px; height: auto;"> <g transform="translate(0.000000,600.000000) scale(0.100000,-0.100000)" fill="#000000" stroke="none"> <path d="M3365 4430 c-237 -21 -494 -113 -712 -256 -136 -88 -198 -138 -331 -269 -173 -168 -277 -307 -548 -732 -148 -233 -234 -343 -350 -451 -213 -200 -501 -354 -744 -398 -147 -26 -170 -33 -196 -61 -42 -45 -26 -133 30 -162 60 -32 319 19 517 102 198 83 382 205 548 363 158 150 257 279 381 492 53 91 219 342 291 439 80 108 243 280 349 367 206 171 442 289 667 332 139 27 343 23 463 -9 199 -53 323 -121 453 -248 85 -84 95 -103 45 -88 -77 22 -195 30 -272 20 -173 -24 -296 -89 -431 -225 -73 -74 -98 -107 -131 -176 -43 -89 -78 -207 -88 -300 -16 -139 36 -368 116 -510 104 -185 312 -354 553 -451 182 -73 392 -119 543 -119 45 0 82 -4 82 -9 0 -10 -118 -43 -233 -67 -106 -21 -324 -29 -444 -15 -280 33 -557 158 -733 331 -140 137 -214 267 -267 469 -24 87 -26 115 -27 297 -1 184 -3 204 -20 223 -26 28 -78 42 -120 30 -75 -21 -250 -199 -381 -389 -67 -97 -288 -391 -372 -495 -86 -107 -247 -262 -358 -345 -114 -86 -133 -114 -116 -171 25 -84 105 -102 192 -43 218 146 446 396 744 814 76 107 145 201 153 209 7 8 20 24 29 37 21 32 33 21 33 -28 0 -115 60 -324 132 -458 219 -411 622 -651 1175 -701 204 -18 472 20 723 103 250 83 642 307 683 391 23 46 11 94 -34 132 -38 32 -74 32 -149 0 -79 -33 -184 -61 -305 -81 -129 -21 -450 -24 -555 -5 -166 29 -368 112 -513 209 -270 180 -389 540 -267 808 74 164 199 270 362 309 154 36 297 0 453 -115 83 -62 122 -66 165 -20 38 41 47 99 26 178 -78 304 -366 585 -705 687 -179 53 -336 70 -506 55z" class=""></path> </g> </svg>