<?xml version="1.0" standalone="no"?>
<!DOCTYPE svg PUBLIC "-//W3C//DTD SVG 20010904//EN"
 "http://www.w3.org/TR/2001/REC-SVG-20010904/DTD/svg10.dtd">
<svg version="1.0" xmlns="http://www.w3.org/2000/svg"
 width="600.000000pt" height="600.000000pt" viewBox="0 0 600.000000 600.000000"
 preserveAspectRatio="xMidYMid meet">
<g transform="translate(0.000000,600.000000) scale(0.100000,-0.100000)"
fill="#000000" stroke="none">
<path d="M3405 4434 c-71 -5 -195 -24 -230 -34 -16 -5 -41 -11 -55 -14 -106
-18 -339 -123 -472 -213 -321 -218 -507 -421 -784 -856 -53 -83 -119 -188
-147 -232 -192 -301 -396 -490 -683 -633 -149 -75 -270 -116 -410 -138 -92
-15 -113 -22 -136 -45 -23 -22 -28 -37 -28 -74 0 -38 5 -52 29 -76 26 -26 36
-29 91 -29 33 0 96 7 138 16 312 63 621 226 858 455 171 163 218 224 369 469
216 353 337 521 484 673 242 251 496 406 786 481 372 95 796 -31 1025 -304
l42 -50 -35 15 c-19 8 -75 19 -125 25 -153 19 -308 -14 -437 -91 -217 -131
-336 -315 -376 -580 -23 -160 30 -403 124 -561 174 -294 619 -526 1045 -545
72 -3 132 -9 132 -12 0 -11 -246 -69 -345 -82 -206 -27 -484 7 -670 81 -363
144 -580 370 -661 686 -34 135 -45 258 -36 387 8 122 1 152 -44 184 -33 23
-84 24 -126 2 -83 -44 -251 -229 -388 -425 -250 -362 -472 -617 -663 -766
-146 -114 -152 -120 -152 -173 0 -40 5 -51 33 -76 74 -66 173 -16 401 206 155
151 295 319 471 565 164 228 233 320 241 320 4 0 9 -37 12 -82 10 -147 43
-263 118 -410 126 -245 333 -445 582 -563 234 -111 567 -178 797 -160 400 31
764 163 1107 402 119 82 145 128 107 193 -20 33 -63 60 -97 60 -14 0 -65 -15
-114 -34 -217 -84 -570 -116 -838 -74 -218 33 -508 177 -637 317 -70 75 -152
236 -174 341 -66 311 130 618 428 671 136 24 290 -20 425 -123 77 -59 119 -64
163 -20 53 53 50 142 -10 285 -64 155 -196 317 -345 423 -85 60 -241 141 -289
150 -17 3 -34 8 -40 12 -14 8 -14 8 -126 31 -98 20 -247 31 -335 25z m367 -55
c40 -11 82 -22 93 -24 28 -6 148 -56 159 -67 6 -4 16 -8 24 -8 18 0 151 -87
185 -122 15 -15 27 -25 27 -23 0 3 6 0 14 -7 17 -16 10 -32 -11 -24 -8 3 -11
1 -8 -5 4 -5 15 -7 25 -4 18 6 61 -26 59 -42 -4 -23 3 -34 18 -31 24 4 122
-139 166 -243 57 -134 55 -238 -6 -270 -15 -9 -18 -8 -11 3 6 10 5 11 -7 1
-21 -17 -54 -9 -86 22 -38 36 -126 87 -199 115 -51 21 -77 24 -195 25 -115 0
-136 -2 -131 -14 4 -10 1 -13 -11 -8 -9 3 -17 2 -17 -3 0 -6 -6 -10 -13 -10
-7 0 -44 -20 -81 -45 -38 -24 -73 -42 -79 -38 -6 3 -7 1 -3 -5 3 -6 -4 -21
-16 -34 -35 -36 -100 -118 -94 -118 4 0 -5 -22 -19 -50 -86 -169 -69 -417 38
-587 13 -21 27 -48 31 -60 4 -13 12 -23 17 -23 5 0 12 -7 16 -16 6 -17 76 -84
136 -132 20 -16 34 -32 31 -35 -3 -3 3 -4 13 -3 10 0 17 -5 15 -12 -1 -8 2
-11 8 -7 10 6 79 -30 92 -49 5 -7 8 -7 8 -1 0 7 3 7 8 0 8 -12 45 -27 162 -67
96 -33 90 -32 185 -52 179 -38 438 -34 665 10 47 9 97 17 112 18 14 1 24 4 22
7 -2 4 22 14 54 24 31 10 62 22 68 27 7 5 28 11 47 13 63 8 113 -60 92 -125
-8 -24 -143 -122 -157 -114 -7 4 -8 3 -4 -5 4 -6 0 -14 -11 -18 -10 -4 -40
-21 -68 -39 -86 -54 -202 -114 -208 -107 -4 3 -7 1 -7 -6 0 -7 -4 -10 -9 -7
-5 4 -11 2 -13 -3 -4 -11 -260 -104 -343 -125 -69 -17 -215 -42 -295 -51 -71
-7 -298 -8 -309 0 -5 3 -33 7 -62 10 -97 10 -134 16 -194 31 -82 20 -176 55
-171 63 3 4 -7 7 -22 8 -45 1 -134 45 -129 64 2 8 -1 16 -8 16 -7 0 -11 -6 -8
-14 3 -7 -23 2 -58 22 -35 19 -63 39 -61 45 1 7 -2 9 -7 5 -14 -8 -62 25 -54
38 3 5 2 7 -4 4 -5 -3 -25 7 -44 23 -22 20 -27 28 -14 23 11 -3 17 -3 13 1 -3
4 -12 8 -20 10 -22 3 -70 44 -64 54 3 6 0 9 -8 8 -14 -1 -90 86 -117 135 -9
15 -19 26 -23 22 -3 -3 -6 1 -6 9 0 9 -7 21 -15 28 -15 13 -21 45 -7 36 5 -3
9 1 9 9 0 11 -4 12 -13 4 -10 -8 -17 -2 -31 23 -27 52 -52 108 -48 108 2 0 -5
21 -16 46 -11 26 -17 56 -14 68 5 15 4 17 -3 7 -7 -9 -12 0 -20 35 -19 84 -30
158 -30 197 0 23 -7 46 -18 58 -17 19 -18 19 -46 -11 -15 -17 -28 -34 -28 -38
0 -4 -19 -28 -43 -54 -23 -25 -43 -52 -45 -60 -2 -7 -12 -22 -23 -34 -10 -11
-19 -24 -19 -28 0 -4 -19 -32 -42 -63 -24 -30 -51 -67 -60 -82 -28 -42 -42
-62 -59 -81 -8 -10 -24 -31 -35 -46 -10 -14 -28 -37 -39 -49 -22 -25 -61 -72
-127 -156 -70 -86 -157 -171 -168 -164 -6 4 -7 12 -4 18 4 7 3 8 -2 4 -5 -5
-10 -13 -10 -18 -1 -5 -2 -10 -4 -11 -1 -2 -3 -11 -5 -21 -2 -11 -5 -20 -7
-21 -2 -1 -32 -26 -68 -57 -123 -104 -171 -133 -219 -133 -32 0 -48 5 -60 21
-24 29 -26 99 -3 119 42 38 162 125 162 117 0 -4 5 0 11 10 5 9 15 17 20 17 6
0 8 -3 5 -8 -2 -4 11 -8 29 -8 19 0 32 3 29 7 -2 5 -10 6 -17 4 -7 -3 -18 -1
-26 4 -11 7 2 25 55 78 38 37 98 101 133 140 35 40 67 70 72 67 5 -3 6 3 3 13
-5 16 -3 15 11 -2 17 -20 17 -20 10 4 -5 18 -4 22 5 16 9 -5 11 -4 6 3 -9 15
34 73 47 65 6 -3 7 -2 4 3 -6 10 33 74 71 114 12 13 22 28 22 32 0 5 4 6 10 3
5 -3 7 0 5 8 -3 7 4 22 15 32 17 15 20 16 15 3 -9 -23 10 -31 26 -10 13 15 12
16 -3 4 -15 -12 -17 -11 -15 10 3 32 26 70 38 63 5 -4 8 -3 7 2 -4 13 33 63
42 58 5 -3 12 0 16 6 4 8 3 9 -4 5 -7 -4 -12 -4 -12 -1 0 10 43 69 52 73 4 2
8 8 8 13 0 6 5 15 10 22 6 7 37 46 69 87 79 101 200 212 257 236 29 12 39 12
68 0 18 -8 37 -20 42 -27 4 -7 9 -108 11 -224 3 -238 5 -275 16 -268 4 2 7 -5
7 -16 0 -24 60 -183 90 -235 44 -80 103 -158 162 -219 34 -34 61 -65 60 -70
-1 -4 2 -6 6 -5 13 4 92 -68 84 -77 -4 -4 0 -6 8 -3 20 7 131 -52 123 -65 -3
-6 -1 -7 5 -3 6 4 19 2 29 -3 54 -28 132 -61 146 -61 9 0 18 -4 21 -8 4 -7 96
-32 123 -34 5 0 17 -4 29 -8 37 -14 211 -31 322 -32 98 0 255 19 342 42 19 5
46 11 60 14 52 9 130 45 130 59 0 4 -5 5 -10 2 -6 -3 -14 2 -18 12 -6 15 -19
18 -72 19 -100 0 -189 7 -185 14 2 3 -10 5 -26 4 -64 -4 -275 60 -419 128 -47
22 -88 45 -92 52 -4 6 -8 8 -8 4 0 -5 -35 17 -77 46 -43 30 -77 60 -75 66 1 6
-2 8 -8 5 -14 -9 -124 101 -115 115 3 6 2 9 -3 8 -33 -9 -165 243 -174 332 -2
14 -7 28 -13 32 -11 8 -14 286 -3 333 4 17 9 40 12 53 11 51 50 146 66 162 3
3 13 22 22 43 10 20 23 37 28 37 6 0 9 4 6 9 -3 4 23 37 58 72 83 83 94 91
108 83 7 -5 8 -3 3 6 -6 10 -4 12 8 7 10 -4 16 -2 14 5 -2 10 97 67 129 75 5
1 29 10 54 19 68 25 239 30 340 10 88 -18 101 -15 104 26 1 13 7 22 15 20 7
-1 9 2 6 8 -5 8 -13 6 -25 -5 -17 -16 -19 -15 -29 3 -6 11 -8 22 -6 26 3 3 2
4 -1 1 -4 -2 -45 30 -93 71 -101 88 -97 84 -138 109 -18 11 -33 23 -33 28 0 5
-7 6 -16 3 -8 -3 -12 -2 -9 4 3 5 -3 8 -12 8 -10 0 -44 11 -75 26 -32 14 -58
23 -58 20 0 -3 -6 -2 -12 3 -7 4 -22 9 -33 10 -11 2 -31 7 -45 13 -40 15 -163
30 -244 30 -174 0 -394 -53 -548 -132 -21 -11 -43 -16 -50 -12 -7 4 -8 3 -4
-4 6 -11 2 -13 -19 -12 -3 1 -13 -6 -21 -15 -9 -8 -20 -12 -26 -9 -7 4 -8 2
-4 -5 8 -12 -33 -32 -48 -23 -5 3 -6 1 -3 -5 3 -5 -7 -19 -23 -31 -20 -15 -31
-18 -36 -10 -5 7 -3 8 6 3 9 -5 11 -4 6 3 -5 9 -13 9 -27 2 -22 -13 -26 -22
-4 -14 8 4 15 1 15 -5 0 -6 -4 -11 -10 -11 -5 0 -19 -10 -32 -23 -48 -47 -149
-117 -160 -111 -6 4 -8 3 -4 -4 8 -13 -42 -74 -55 -66 -5 3 -8 0 -7 -8 2 -8
-6 -13 -19 -12 -13 1 -20 -3 -17 -7 3 -5 10 -7 15 -4 19 13 7 -4 -43 -58 -29
-30 -66 -72 -81 -91 -16 -20 -32 -34 -36 -32 -4 3 -8 0 -8 -7 0 -19 -121 -192
-134 -192 -7 0 -14 -7 -16 -15 -4 -13 -3 -13 7 0 13 17 10 7 -10 -33 -7 -15
-19 -26 -26 -23 -8 3 -16 0 -20 -6 -4 -7 -3 -8 4 -4 7 4 12 3 12 -1 0 -9 -56
-100 -111 -181 -16 -23 -29 -47 -29 -53 0 -6 -4 -8 -9 -4 -5 3 -11 -5 -13 -17
-2 -13 -9 -22 -16 -20 -8 1 -11 -2 -7 -8 4 -6 -22 -52 -56 -103 -76 -113 -89
-128 -102 -120 -6 3 -7 1 -3 -5 4 -7 2 -12 -5 -12 -7 0 -9 -3 -6 -7 10 -9 -24
-44 -36 -36 -5 3 -7 2 -4 -4 11 -17 -213 -233 -241 -233 -7 0 -11 4 -8 8 3 5
-1 9 -9 9 -11 0 -12 -4 -3 -14 17 -21 1 -28 -20 -10 -15 14 -19 15 -19 2 0 -8
4 -12 8 -9 4 2 10 0 13 -5 9 -13 -51 -54 -66 -45 -7 4 -10 4 -6 -1 13 -14 -76
-70 -95 -59 -7 4 -9 4 -5 -1 9 -10 -31 -47 -43 -39 -5 3 -9 1 -9 -3 0 -8 -37
-27 -140 -72 -160 -69 -403 -123 -480 -106 -31 7 -60 46 -60 82 0 26 25 68 38
66 7 -2 12 1 12 6 0 5 26 13 58 16 68 9 204 39 262 60 23 8 47 12 53 8 5 -3 7
-1 3 5 -3 6 4 14 16 18 13 3 55 22 95 40 39 19 76 34 82 34 6 0 11 3 11 8 0 4
24 20 53 36 28 16 71 42 94 59 23 16 46 26 52 23 7 -4 9 -1 5 8 -3 8 2 19 14
25 10 5 47 36 81 68 35 32 70 58 79 58 9 0 16 10 17 24 2 25 32 54 46 46 4 -3
10 -1 14 5 4 6 12 7 18 4 9 -5 9 -4 0 6 -13 14 -6 43 8 34 5 -3 6 1 3 9 -3 8
3 20 12 28 10 8 15 9 11 3 -7 -12 29 -12 40 1 5 4 2 5 -5 1 -25 -15 -24 24 2
51 14 14 26 30 26 35 0 5 5 6 12 2 6 -4 8 -3 4 4 -6 10 33 76 140 242 23 36
60 94 83 130 46 73 63 98 153 222 35 47 70 97 78 110 8 12 34 42 57 66 23 24
49 54 58 68 9 15 22 23 30 20 8 -3 17 0 21 6 4 7 3 8 -4 4 -18 -11 -14 10 4
25 13 10 17 10 25 -2 8 -10 9 -9 4 8 -4 17 1 25 25 39 16 10 30 23 30 29 1 18
172 146 187 141 8 -4 11 -1 8 5 -4 6 2 13 14 16 12 3 21 9 21 13 0 13 112 80
124 73 6 -3 8 -3 4 2 -10 11 61 48 78 41 8 -3 13 0 11 7 -1 7 8 12 20 11 12 0
20 3 17 7 -3 5 8 11 23 15 15 4 33 11 39 16 17 13 157 59 162 53 3 -3 11 0 17
5 22 18 146 40 265 46 63 4 116 7 117 8 9 7 207 -19 265 -35z m588 -339 c0 -5
-2 -10 -4 -10 -3 0 -8 5 -11 10 -3 6 -1 10 4 10 6 0 11 -4 11 -10z m-2790
-1214 c0 -3 -4 -8 -10 -11 -5 -3 -10 -1 -10 4 0 6 5 11 10 11 6 0 10 -2 10 -4z
m-75 -76 c3 -5 1 -10 -4 -10 -6 0 -11 5 -11 10 0 6 2 10 4 10 3 0 8 -4 11 -10z
m455 -630 c0 -5 -5 -10 -11 -10 -5 0 -7 5 -4 10 3 6 8 10 11 10 2 0 4 -4 4
-10z"/>
<path d="M3760 4346 c0 -2 7 -7 16 -10 8 -3 12 -2 9 4 -6 10 -25 14 -25 6z"/>
<path d="M3865 4330 c-3 -6 1 -7 9 -4 18 7 21 14 7 14 -6 0 -13 -4 -16 -10z"/>
<path d="M3746 4232 c-3 -5 1 -9 9 -9 8 0 12 4 9 9 -3 4 -7 8 -9 8 -2 0 -6 -4
-9 -8z"/>
<path d="M2610 4106 c0 -2 8 -10 18 -17 15 -13 16 -12 3 4 -13 16 -21 21 -21
13z"/>
<path d="M2777 4049 c7 -7 15 -10 18 -7 3 3 -2 9 -12 12 -14 6 -15 5 -6 -5z"/>
<path d="M2431 3967 c-13 -21 -12 -21 5 -5 10 10 16 20 13 22 -3 3 -11 -5 -18
-17z"/>
<path d="M4220 3980 c-9 -6 -10 -10 -3 -10 6 0 15 5 18 10 8 12 4 12 -15 0z"/>
<path d="M2565 3911 c-3 -5 -2 -12 3 -15 5 -3 9 1 9 9 0 17 -3 19 -12 6z"/>
<path d="M2330 3856 c0 -2 7 -7 16 -10 8 -3 12 -2 9 4 -6 10 -25 14 -25 6z"/>
<path d="M2250 3776 c0 -2 7 -7 16 -10 8 -3 12 -2 9 4 -6 10 -25 14 -25 6z"/>
<path d="M2182 3720 c-18 -29 -15 -38 4 -12 9 13 14 25 12 27 -2 2 -9 -5 -16
-15z"/>
<path d="M2214 3718 l-19 -23 23 19 c21 18 27 26 19 26 -2 0 -12 -10 -23 -22z"/>
<path d="M2225 3701 c-3 -5 -2 -12 3 -15 5 -3 9 1 9 9 0 17 -3 19 -12 6z"/>
<path d="M3493 3535 c0 -8 4 -12 9 -9 5 3 6 10 3 15 -9 13 -12 11 -12 -6z"/>
<path d="M3465 3530 c-3 -5 -1 -10 4 -10 6 0 11 5 11 10 0 6 -2 10 -4 10 -3 0
-8 -4 -11 -10z"/>
<path d="M1986 3413 c-6 -14 -5 -15 5 -6 7 7 10 15 7 18 -3 3 -9 -2 -12 -12z"/>
<path d="M2666 3245 c-11 -8 -15 -15 -9 -15 6 0 16 7 23 15 16 19 11 19 -14 0z"/>
<path d="M2006 3227 c3 -10 9 -15 12 -12 3 3 0 11 -7 18 -10 9 -11 8 -5 -6z"/>
<path d="M1811 3162 c-14 -30 -14 -33 -4 -29 4 1 8 8 10 16 1 8 7 17 13 21 7
5 8 10 3 13 -6 4 -16 -6 -22 -21z"/>
<path d="M2590 3170 c-9 -6 -10 -10 -3 -10 6 0 15 5 18 10 8 12 4 12 -15 0z"/>
<path d="M2509 3083 c-13 -16 -12 -17 4 -4 16 13 21 21 13 21 -2 0 -10 -8 -17
-17z"/>
<path d="M2488 3053 c7 -3 16 -2 19 1 4 3 -2 6 -13 5 -11 0 -14 -3 -6 -6z"/>
<path d="M3540 2765 c0 -5 5 -17 10 -25 5 -8 10 -10 10 -5 0 6 -5 17 -10 25
-5 8 -10 11 -10 5z"/>
<path d="M2216 2677 c3 -10 9 -15 12 -12 3 3 0 11 -7 18 -10 9 -11 8 -5 -6z"/>
<path d="M1420 2665 c-7 -9 -8 -15 -2 -15 5 0 12 7 16 15 3 8 4 15 2 15 -2 0
-9 -7 -16 -15z"/>
<path d="M2921 2664 c0 -11 3 -14 6 -6 3 7 2 16 -1 19 -3 4 -6 -2 -5 -13z"/>
<path d="M2146 2595 c-9 -26 -7 -32 5 -12 6 10 9 21 6 23 -2 3 -7 -2 -11 -11z"/>
<path d="M1332 2586 c7 -8 15 -12 17 -11 5 6 -10 25 -20 25 -5 0 -4 -6 3 -14z"/>
<path d="M1445 2549 c-4 -6 -5 -12 -2 -15 2 -3 7 2 10 11 7 17 1 20 -8 4z"/>
<path d="M3790 2501 c0 -6 4 -13 10 -16 6 -3 7 1 4 9 -7 18 -14 21 -14 7z"/>
<path d="M1072 2423 c-15 -12 -14 -13 7 -2 21 10 23 9 18 -5 -9 -22 0 -20 12
2 12 23 -11 26 -37 5z"/>
<path d="M3040 2426 c0 -2 8 -10 18 -17 15 -13 16 -12 3 4 -13 16 -21 21 -21
13z"/>
<path d="M2167 2407 c-3 -8 1 -14 8 -14 7 0 11 6 8 14 -3 7 -6 13 -8 13 -2 0
-5 -6 -8 -13z"/>
<path d="M3890 2296 c0 -2 7 -7 16 -10 8 -3 12 -2 9 4 -6 10 -25 14 -25 6z"/>
<path d="M635 2271 c-3 -5 -2 -12 3 -15 5 -3 9 1 9 9 0 17 -3 19 -12 6z"/>
<path d="M5206 2221 c-9 -14 5 -42 16 -35 6 4 5 10 -3 15 -12 8 -11 11 1 19 9
6 10 10 3 10 -6 0 -14 -4 -17 -9z"/>
<path d="M5268 2223 c7 -3 16 -2 19 1 4 3 -2 6 -13 5 -11 0 -14 -3 -6 -6z"/>
<path d="M4807 1989 c7 -7 15 -10 18 -7 3 3 -2 9 -12 12 -14 6 -15 5 -6 -5z"/>
<path d="M1725 1960 c-3 -6 1 -7 9 -4 18 7 21 14 7 14 -6 0 -13 -4 -16 -10z"/>
<path d="M4645 1910 c-3 -6 1 -7 9 -4 18 7 21 14 7 14 -6 0 -13 -4 -16 -10z"/>
<path d="M3766 3907 c3 -10 9 -15 12 -12 3 3 0 11 -7 18 -10 9 -11 8 -5 -6z"/>
<path d="M3540 3736 c7 -7 13 -7 20 0 6 6 3 10 -10 10 -13 0 -16 -4 -10 -10z"/>
<path d="M4615 3549 c-4 -6 -5 -12 -2 -15 2 -3 7 2 10 11 7 17 1 20 -8 4z"/>
<path d="M2055 3140 c-3 -6 1 -7 9 -4 18 7 21 14 7 14 -6 0 -13 -4 -16 -10z"/>
<path d="M2344 3020 c0 -13 4 -16 10 -10 7 7 7 13 0 20 -6 6 -10 3 -10 -10z"/>
<path d="M3571 2146 c-9 -11 -9 -16 1 -22 7 -4 10 -4 6 1 -4 4 -3 14 3 22 6 7
9 13 6 13 -2 0 -10 -6 -16 -14z"/>
</g>
</svg>
